<svg xmlns="http://www.w3.org/2000/svg" viewBox="0 0 64 64">
  <rect width="64" height="64" rx="16" fill="#0f1e33"/>
  <circle cx="21" cy="21" r="7" fill="#ffd166"/>
  <g fill="none" stroke="#ffd166" stroke-width="2.4" stroke-linecap="round">
    <path d="M21 10v4"/>
    <path d="M21 28v4"/>
    <path d="M10 21h4"/>
    <path d="M28 21h4"/>
  </g>
  <path d="M43 45H19c-5.5 0-10-4.2-10-9.3 0-4.4 3.3-8.1 7.7-8.9 1.4-5.5 6.2-9.4 12-9.4 5.4 0 10.1 3.4 11.8 8.4 1.2-.4 2.4-.6 3.7-.6 4.8 0 8.8 3.5 9.4 8 4.2 1 7.4 4.6 7.4 9 0 5.3-4.6 9.8-10.3 9.8H43z" fill="#eef7ff" stroke="#a9d9ff" stroke-width="2"/>
  <path d="M24 48l-3.5 6M34 48l-3.5 6M44 48l-3.5 6" fill="none" stroke="#7ec8ff" stroke-width="2.8" stroke-linecap="round"/>
</svg>
