<svg xmlns="http://www.w3.org/2000/svg" viewBox="0 0 512 512">
  <defs>
    <linearGradient id="mausamBg" x1="0%" y1="0%" x2="100%" y2="100%">
      <stop offset="0%" stop-color="#17355f"/>
      <stop offset="100%" stop-color="#09111d"/>
    </linearGradient>
  </defs>
  <rect width="512" height="512" rx="120" fill="url(#mausamBg)"/>
  <circle cx="186" cy="190" r="58" fill="#ffd166"/>
  <g fill="none" stroke="#ffd166" stroke-width="14" stroke-linecap="round">
    <path d="M186 98v28"/>
    <path d="M186 254v28"/>
    <path d="M94 190h28"/>
    <path d="M250 190h28"/>
    <path d="M121 125l20 20"/>
    <path d="M251 255l20 20"/>
    <path d="M121 255l20-20"/>
    <path d="M251 125l20 20"/>
  </g>
  <path d="M332 332H166c-38 0-68-29-68-65 0-31 23-58 54-64 10-40 45-69 87-69 40 0 74 25 86 61 9-3 18-4 27-4 34 0 62 25 66 57 30 7 52 33 52 64 0 37-33 68-74 68h-64z" fill="#eef7ff" stroke="#a9d9ff" stroke-width="14" stroke-linejoin="round"/>
  <path d="M202 376l-18 34M262 376l-18 34M322 376l-18 34" fill="none" stroke="#7ec8ff" stroke-width="16" stroke-linecap="round"/>
</svg>
